<?xml version="1.0" encoding="UTF-8"?><svg id="Layer_2" xmlns="http://www.w3.org/2000/svg" viewBox="0 0 85.11 18.94"><defs><style>.cls-1{fill:#0043e1;}.cls-2{fill:#002654;}.cls-3{fill:#7b9eff;}</style></defs><g id="Layer_1-2"><g><g><path class="cls-1" d="M7.01,18.94h3.69c0-.73,.14-1.01,.41-1.52,.35-.67,.82-1.58,.82-3.22,0-1.63-.47-2.55-.82-3.22-.26-.51-.41-.78-.41-1.52s.14-1.01,.41-1.52c.35-.67,.82-1.58,.82-3.22,0-1.63-.47-2.55-.82-3.22-.26-.51-.41-.78-.41-1.52h-3.69c0,1.63,.47,2.55,.82,3.22,.26,.51,.41,.78,.41,1.52s-.14,1.01-.41,1.52c-.35,.67-.82,1.58-.82,3.22s.47,2.55,.82,3.22c.26,.51,.41,.78,.41,1.52,0,.73-.14,1.01-.41,1.52-.35,.67-.82,1.58-.82,3.22Z"/><path class="cls-3" d="M0,18.94H3.69c0-.73,.14-1.01,.41-1.52,.35-.67,.82-1.58,.82-3.22s-.47-2.55-.82-3.22c-.26-.51-.41-.78-.41-1.52s.14-1.01,.41-1.52c.35-.67,.82-1.58,.82-3.22s-.47-2.55-.82-3.22c-.26-.51-.41-.78-.41-1.52H0C0,1.63,.47,2.55,.82,3.22c.26,.51,.41,.78,.41,1.52s-.14,1.01-.41,1.52C.47,6.92,0,7.83,0,9.47s.47,2.55,.82,3.22c.26,.51,.41,.78,.41,1.52s-.14,1.01-.41,1.52C.47,16.39,0,17.31,0,18.94Z"/><path class="cls-2" d="M14.03,0h3.69c0,.73,.14,1.01,.41,1.52,.35,.67,.82,1.58,.82,3.22s-.47,2.55-.82,3.22c-.26,.51-.41,.78-.41,1.52s.14,1.01,.41,1.52c.35,.67,.82,1.58,.82,3.22s-.47,2.55-.82,3.22c-.26,.51-.41,.78-.41,1.52h-3.69c0-1.63,.47-2.55,.82-3.22,.26-.51,.41-.78,.41-1.52s-.14-1.01-.41-1.52c-.35-.67-.82-1.58-.82-3.22,0-1.63,.47-2.55,.82-3.22,.26-.51,.41-.78,.41-1.52s-.14-1.01-.41-1.52C14.5,2.55,14.03,1.63,14.03,0Z"/></g><g><g><path class="cls-2" d="M29.76,18.39c-.74-.37-1.33-.87-1.78-1.51v1.79h-2.57V0h2.57V7.22c.39-.66,.97-1.18,1.73-1.55s1.57-.56,2.45-.56c1.28,0,2.43,.29,3.45,.87,1.02,.58,1.82,1.4,2.41,2.45,.59,1.05,.88,2.26,.88,3.61s-.29,2.53-.88,3.59c-.59,1.05-1.4,1.87-2.42,2.45-1.03,.58-2.17,.87-3.44,.87-.86,0-1.65-.18-2.4-.55Zm5.36-3.14c.78-.8,1.18-1.87,1.18-3.21,0-.89-.18-1.68-.55-2.35-.37-.68-.86-1.2-1.48-1.57-.62-.37-1.33-.55-2.11-.55s-1.49,.18-2.13,.55c-.63,.37-1.13,.89-1.5,1.57-.37,.68-.55,1.46-.55,2.35s.18,1.67,.55,2.34c.37,.67,.86,1.18,1.5,1.54,.63,.36,1.34,.53,2.13,.53,1.19,0,2.18-.4,2.97-1.2Z"/><path class="cls-2" d="M40.8,11.4c-.02-1.85,.48-3.3,1.49-4.32,1.01-1.03,2.36-1.59,4.05-1.7v2.46c-.87,.09-1.59,.48-2.14,1.16s-.83,1.6-.83,2.74l.03,6.93h-2.57l-.03-7.28Z"/><path class="cls-2" d="M48.96,17.79c-.92-.77-1.38-1.82-1.38-3.16,0-.91,.25-1.71,.76-2.39,.51-.69,1.22-1.22,2.13-1.59s1.95-.56,3.13-.56c.8,0,1.54,.1,2.22,.29l-.03-.53c-.04-.66-.28-1.21-.72-1.65-.45-.44-1.04-.66-1.79-.68-1.3-.09-2.69,.34-4.17,1.28l-.94-2.3c1.55-.93,3.22-1.39,5-1.39,1.61,0,2.92,.49,3.95,1.46,1.03,.97,1.54,2.36,1.54,4.16v7.95h-2.51v-1.39c-1.14,1.11-2.38,1.66-3.72,1.66s-2.55-.38-3.47-1.15Zm5.73-1.89c.65-.47,1.08-1.08,1.3-1.83l.03-1.34c-.66-.2-1.41-.31-2.25-.35-1.07,0-1.94,.22-2.6,.66-.66,.44-.99,.97-.99,1.59s.22,1.12,.67,1.47c.45,.36,1.02,.53,1.71,.53,.77-.02,1.48-.26,2.13-.74Z"/><g><path class="cls-2" d="M60.99,2.64c-.29-.29-.43-.66-.43-1.11s.14-.79,.43-1.08C61.28,.15,61.65,0,62.09,0s.79,.15,1.08,.44c.29,.29,.44,.66,.44,1.08s-.15,.82-.44,1.11c-.29,.29-.66,.44-1.08,.44s-.81-.15-1.1-.44Z"/><polygon class="cls-2" points="63.39 18.77 60.79 18.77 60.82 5.48 63.39 5.48 63.39 18.77"/></g><path class="cls-2" d="M71.54,18.15c-.79,.48-1.59,.72-2.41,.72-1.03,0-1.89-.37-2.57-1.11-.68-.74-1.02-1.73-1.02-2.96l-.03-14.8h2.54l.03,14.56c0,.57,.12,1.01,.36,1.31,.24,.3,.57,.45,.98,.45,.37,0,.77-.12,1.18-.35l.94,2.17Z"/><path class="cls-2" d="M74.41,18.42c-.67-.26-1.24-.61-1.7-1.06l1.2-2.03c.5,.37,.96,.64,1.38,.8,.42,.16,.86,.24,1.32,.24,.54,0,.96-.13,1.27-.4,.31-.27,.47-.62,.47-1.04,0-.39-.16-.75-.47-1.08-.31-.33-.91-.7-1.78-1.11-1.23-.55-2.14-1.14-2.73-1.77s-.88-1.37-.88-2.25c0-1.14,.4-2.05,1.2-2.73,.8-.68,1.85-1.02,3.13-1.02,.93,0,1.93,.26,3,.78l-.99,2.35c-.84-.52-1.53-.78-2.09-.78-.5,0-.9,.12-1.19,.36-.29,.24-.44,.56-.44,.95,0,.3,.17,.61,.51,.92,.34,.31,.89,.65,1.66,1,1.37,.66,2.32,1.3,2.85,1.91,.53,.62,.79,1.4,.79,2.37,0,1.18-.41,2.13-1.24,2.86-.83,.73-1.9,1.1-3.2,1.1-.71,0-1.4-.13-2.07-.39Z"/></g><path class="cls-2" d="M85.11,1.83c0,.25-.05,.49-.14,.71s-.22,.41-.39,.58-.36,.29-.58,.39-.45,.14-.71,.14h-.02c-.25,0-.49-.05-.71-.14s-.41-.22-.58-.39-.29-.36-.39-.58-.14-.46-.14-.71v-.02c0-.25,.05-.49,.14-.71,.09-.22,.22-.41,.39-.58s.36-.29,.58-.39S83.02,0,83.28,0h.02c.25,0,.49,.05,.71,.14s.41,.22,.58,.39,.29,.36,.39,.58c.09,.22,.14,.46,.14,.71v.02Zm-.6-.73c-.12-.21-.29-.38-.5-.5-.21-.12-.45-.19-.71-.19h-.02c-.26,0-.5,.06-.71,.19-.21,.12-.38,.29-.5,.5s-.19,.45-.19,.71v.02c0,.26,.06,.5,.19,.71,.12,.21,.29,.38,.5,.5,.21,.12,.45,.19,.71,.19h.02c.26,0,.5-.06,.71-.19,.21-.12,.38-.29,.5-.5,.12-.21,.19-.45,.19-.71v-.02c0-.26-.06-.5-.19-.71Zm-1.95-.2h.81c.22,0,.4,.05,.52,.16,.12,.11,.19,.26,.19,.46h0c0,.12-.03,.23-.09,.32-.06,.1-.15,.16-.25,.21l.4,.7h-.49l-.35-.63h-.3v.63h-.43V.9Zm.77,.87c.1,0,.17-.02,.23-.07s.08-.11,.08-.18-.03-.14-.09-.18c-.06-.04-.13-.07-.23-.07h-.33v.5h.33Z"/></g></g></g></svg>